Patient4_TMGait_0pt5_02_right_43_EMG.mot
version=1
nRows=34
nColumns=33
inDegrees=no
endheader
time	1LAddLong	2LGlutMax	3LGlutMed	4LIliopsoas	5LSemiMemb	6LBicFemLong	7LRecFem	8LVastMed	9LVastLat	10LGasMed	11LTibAnt	12lTibPost	13LPeroneusLong	14LSol	15LExtDigLong	16LFlexDigLong	17RAddLong	18RGlutMax	19RGlutMed	20RIliopsoas	21RSemiMemb	22RBicFemLong	23RRecFem	24RVastMed	25RVastLat	26RGasMed	27RTibAnt	28RTibPost	29RPeroneusLong	30RSol	31RExtDigLong	32RFlexDigLong
56.57	0.000153	-0.4451	0.048218	-0.011139	-0.000153	-0.019684	0.05722	0.007477	0.023499	0.10773	-0.009003	-0.69199	-0.40024	0.47836	-0.035248	-0.009613	-0.057678	-1.2138	-0.86136	-0.009613	0.3775	0.22492	0.78842	0.0737	-0.32105	-0.099335	0.22354	-0.054169	-1.5372	0.12848	-0.003357	-0.009003
56.571	-0.001984	-0.46326	0.043793	0.01297	0.005798	-0.012054	0.10178	0.012817	0.0354	0.18768	-0.023346	0.049438	-0.11444	0.30167	-0.014954	-0.48492	-0.070343	-1.2485	-1.2292	0.067902	0.17456	0.037689	0.76706	0.072021	-0.27557	0.066071	0.26749	-0.031128	-1.6563	0.29327	-0.00061	-0.007629
56.572	0.008698	-0.47394	0.054321	0.006409	0.008392	-0.018005	-0.066223	0.015259	0.044403	0.049286	-0.022278	-0.21255	0.068359	-0.23804	-0.0177	-0.60226	-0.052643	-1.0858	-0.51498	0.034485	0.03891	-0.26413	0.58456	-0.008392	0.11398	-0.05722	0.17014	-0.035858	-1.0979	0.43182	-0.001831	-0.001526
56.573	-0.00061	-0.50369	0.045929	-0.003052	0.007324	-0.019989	-0.12894	0.014801	0.037384	-0.14816	-0.024719	-0.00412	0.040436	-0.2504	-0.028381	0.34439	-0.039063	-0.84961	0.52948	0.033875	-0.040588	-0.45288	0.54611	0.011597	0.24857	-0.083313	0.048065	-0.068054	0.094757	0.55344	-0.002136	-0.001526
56.574	0.008698	-0.50568	0.044556	0.007782	0.00946	-0.029755	-0.12528	0.026093	0.048676	-0.11643	-0.025787	-0.18784	0.021362	-0.74814	-0.043488	0.81039	-0.008087	-0.81085	0.73288	0.045319	0.086212	-0.39627	0.13794	-0.16449	0.1236	-0.11536	0.016937	0.052338	-0.36652	0.47745	-0.000153	0.003357
56.575	0.010681	-0.44403	0.0354	0.007629	0.008087	-0.039978	-0.20142	0.02655	0.059662	0.014191	-0.033112	-0.18051	-0.014496	-1.0463	-0.061646	0.25238	0.009766	-0.74997	0.44235	0.018463	0.2034	-0.32227	-0.7045	-0.26016	0.16281	-0.059967	-0.067749	0.032654	-0.12054	0.31754	-0.007629	0.006561
56.576	0.008087	-0.40085	0.037231	-0.002441	0.010223	-0.048981	-0.35431	0.007019	0.050354	0.069122	-0.02533	-0.15579	-0.23178	-0.44205	-0.048828	-0.13657	0.056458	-0.65521	-0.38498	0.014038	0.15198	-0.4303	-0.52536	-0.090942	0.25711	0.017853	-0.10132	-0.04303	-0.080109	0.26398	-0.001526	0.010071
56.577	0.006104	-0.33783	0.079651	-0.005188	0.014496	-0.036163	-0.43991	0.008392	0.049286	0.12268	-0.020142	-0.15167	-0.17197	-0.029602	-0.067596	-0.14557	0.066071	-0.6369	-0.44235	0.036316	-0.037994	-0.39124	-0.23956	-0.033569	0.17395	0.015411	-0.042267	-0.018311	-0.22492	0.07019	-0.000305	-0.00885
56.578	-0.001221	-0.35187	0.1001	-0.00946	0.011902	-0.036621	-0.39551	0.013733	0.043945	0.11322	-0.021057	-0.13901	-0.12573	0.60455	-0.043488	0.12131	0.012665	-0.75134	-0.62988	0.014954	-0.22263	-0.45471	-0.16617	0.029907	-0.070801	0.063019	0.082855	0.050507	-0.044098	0.056	0.00061	-0.008392
56.579	-0.003357	-0.30563	0.077667	0.016785	0.005188	-0.039063	-0.36468	0.013275	0.053558	0.074158	-0.037994	-0.17456	-0.11597	0.63095	0.003967	0.16602	-0.052795	-0.81161	-0.56839	-0.026245	-0.28809	-0.59631	0.017548	0.12756	-0.36728	0.088348	0.28366	0.045624	0.13992	0.097809	0.002899	-0.014343
56.58	-0.037384	-0.23438	0.079346	0.029144	0.00885	-0.03479	-0.27191	0.012207	0.039368	0.12131	-0.042114	-0.16464	-0.083008	0.44174	0.035095	-0.052338	-0.033569	-0.71411	-0.72189	-0.02121	0.02182	-0.78339	0.050354	0.13916	-0.36636	0.067749	0.50125	0.048065	0.12283	-0.36346	0.003967	-0.009918
56.581	-0.062866	-0.19989	0.025024	0.024719	0.011749	-0.021515	-0.20615	0.016632	0.052032	0.30441	0.044098	-0.12772	-0.10239	0.13794	0.20874	-0.05249	-0.002899	-0.8081	-0.29633	-0.068359	0.30579	-0.9198	0.10635	0.17609	-0.14862	0.069122	0.62546	-0.023651	-0.87738	-0.61249	-0.001068	-0.013123
56.582	-0.010681	-0.096588	0.004578	0.015717	0.002136	-0.006561	-0.15686	0.018311	0.066223	0.33661	0.070343	-0.11581	-0.098572	-0.16449	0.15503	-0.054779	0.024719	-0.85297	0.16022	-0.077972	0.24918	-1.1736	0.085602	0.28686	-0.033875	0.071411	0.39032	-0.031586	0.1413	-0.73669	-0.001373	-0.00412
56.583	-0.00412	-0.05722	0.019226	0.02655	0.007935	-0.014954	-0.17624	0.016785	0.079041	0.3125	0.08194	-0.15243	-0.083923	-0.22705	0.13733	-0.031433	0.095825	-0.99442	0.30579	-0.10941	0.016479	-1.1844	0.13855	0.20584	0.005188	0.056915	-0.19226	-0.017548	0.47897	-0.63461	0.005493	0.000916
56.584	0.012665	-0.000305	0.005646	-0.010986	0.020142	-0.017853	-0.15854	0.02121	0.084991	0.25665	0.074463	-0.11154	-0.058594	-0.1445	0.072479	-0.053711	0.13947	-1.0651	-0.22446	-0.085754	-0.11337	-1.0344	0.054626	0.012207	-0.021973	0.04303	-0.45837	-0.006561	-0.103	-0.43427	-0.001221	-0.001678
56.585	0.009308	0.039673	0.023041	-0.009003	0.007629	-0.007782	-0.16052	0.017548	0.077667	-0.20142	-0.24811	-0.077515	0.059662	0.023499	-0.074615	-0.036163	0.12909	-1.1017	-0.93674	-0.00824	-0.2298	-0.86563	0.003967	-0.11139	-0.011902	0.015869	-0.17288	-0.00473	-0.32776	-0.32013	-0.001831	-0.004272
56.586	0.013275	0.12497	0.045471	-0.005493	0.008392	0.006866	-0.15961	0.029144	0.075378	-0.34485	-0.20187	-0.04837	0.088806	0.11887	-0.10727	0.014343	0.098877	-1.136	0.030518	-0.011292	-0.009766	-0.88303	-0.099182	-0.19272	-0.008545	0.012817	0.095978	-0.013123	-0.71121	-0.3038	-0.000458	-0.008545
56.587	0.005035	0.159	0.009155	-0.005951	0.00351	-0.012054	-0.06546	0.019989	0.080872	-0.41168	0.077362	-0.010223	0.006714	0.14862	-0.19669	0.034637	0.032043	-1.1736	0.86929	0.006104	0.10834	-0.7576	-0.13733	-0.21408	0.002289	0.018311	0.045471	-0.006104	0.71854	-0.22232	-0.007172	-0.002136
56.588	-0.007629	0.22217	-0.015106	-0.014038	0.00412	-0.036163	0.068054	0.016022	0.087585	-0.1712	0.15808	0.023804	-0.075073	0.045471	-0.3569	-0.023193	-0.060577	-1.2984	0.96268	0.039368	-0.3244	-0.45654	-0.057373	-0.1358	-0.008698	0.028076	-0.30792	-0.000763	1.5495	-0.34897	-0.000916	0.001984
56.589	-0.011597	0.32852	0.007629	-0.019073	0.002289	-0.027466	0.1471	0.007782	0.09201	-0.032349	0.11093	0.051727	-0.073853	0.04837	-0.36926	-0.16113	-0.12741	-1.3022	1.3544	-0.060883	-0.76599	-0.23789	-0.010529	-0.031128	-0.022583	0.027008	-0.88928	-0.000916	1.5627	-0.42343	0.001678	0
56.59	-0.009155	0.43762	0.032349	-0.007324	0.004425	-0.019989	0.22171	0.016785	0.086823	0.001984	0.06546	0.065613	-0.070953	0.049591	-0.28809	-0.054016	-0.095978	-1.0867	0.29663	0.037842	-0.28351	-0.13687	-0.009003	0.24963	-0.006714	0.010071	-0.73212	-0.014343	1.803	-0.079803	-0.004578	-0.006256
56.591	-0.001678	0.50903	0.032806	0.004883	0.007629	-0.051575	0.3186	0.01236	0.094604	0.023651	0.036926	0.091095	-0.066681	0.041504	-0.12848	0.10925	-0.096436	-1.032	-0.63202	0.063477	0.26886	-0.36194	-0.16693	0.52689	0.10452	-0.004578	-0.001373	-0.007172	1.5186	0.21469	-0.002747	-0.005798
56.592	-0.000458	0.52033	0.008698	0.027618	0.006714	-0.037842	0.31158	0.019226	0.096283	0.028381	-0.047913	0.099335	-0.056	0.066528	-0.054932	-0.023499	-0.088501	-0.98404	-0.4631	0.079346	0.56793	-0.37369	-0.15213	0.5629	0.15457	-0.006714	0.38971	-0.003967	-0.53574	0.14313	-0.000916	-0.009003
56.593	-0.005035	0.58823	0.012207	0.050049	0.010529	-0.034485	0.25955	0.015564	0.087585	0.012207	0.045624	0.09964	-0.023956	0.059357	0.21759	0.019989	-0.052643	-0.87494	0.59464	-0.12772	0.17441	-0.23392	-0.13901	0.46417	0.15549	-0.00885	0.23804	-0.002289	-1.2704	-0.13702	0	-0.001831
56.594	-0.000305	0.62698	0.008392	0.02182	0.010223	-0.036469	0.2626	0.009613	0.089111	-0.018768	-0.095825	0.098419	0.024109	0.028229	0.18021	0.055084	-0.047455	-0.71793	0.88089	-0.16663	0.023499	-0.35278	-0.11932	0.31311	0.13428	-0.002594	-0.083618	0.00061	-0.84	-0.040283	-0.001526	-0.00946
56.595	0.009613	0.69504	0.005035	0.011139	0.017395	-0.02594	0.32257	0.016022	0.079956	-0.012665	-0.21011	0.10025	0.019531	0.078735	0.090942	0.033264	-0.050659	-0.55588	0.39627	-0.19272	-0.048981	-0.27679	0.028076	0.20126	0.10651	-0.010986	-0.21668	-0.006256	-0.45654	0.16632	0.011749	-0.001373
56.596	-0.00412	0.73029	-0.003052	0.014496	0.013733	-0.01236	0.43884	0.016022	0.073395	-0.002289	-0.19501	0.098572	-0.016785	0.061493	0.063324	0.041199	-0.027771	-0.45075	-0.12711	-0.11078	0.12344	-0.10681	0.09613	-0.016479	0.071106	-0.001068	-0.1239	-0.00885	0.14038	0.22385	0.005951	-0.00885
56.597	-0.001678	0.74081	-0.027466	0.015869	0.018616	0.034943	0.59113	0.017548	0.053253	0.093689	-0.088806	0.09491	-0.049133	0.032196	0.23193	0.022125	-0.010681	-0.15121	-0.3978	0.039673	0.19791	-0.13641	0.11566	-0.17151	0.077057	0.005341	0.031433	-0.005341	0.076904	0.17777	0.002747	-0.010071
56.598	0.007324	0.7898	-0.030823	0.018158	0.013885	0.045013	0.59418	0.014648	0.037079	0.26718	-0.014954	0.089874	-0.062256	-0.005188	0.36865	0.027008	-0.03067	0.32394	-0.7106	0.18906	0.093231	-0.16937	0.1268	-0.14923	0.080872	-0.013275	0.14633	0.001831	-0.35233	0.090027	-0.002136	-0.016327
56.599	0.001984	0.84045	-0.033417	-0.00824	0.008392	0.025024	0.42587	0.016937	0.023499	0.30441	-0.079651	0.081482	0.028839	-0.00824	0.20599	0.019836	-0.037994	0.5574	-1.0529	0.15625	0.2446	-0.026245	0.18799	-0.097809	0.065002	-0.014648	0.068817	-0.004425	-0.61584	0.033569	0.009613	-0.013123
56.6	0.00061	0.85251	-0.018158	-0.005035	0.006561	0.027924	0.29907	0.018005	0.023499	0.35858	-0.055695	0.070038	0.068054	-0.014954	0.58868	0.042419	-0.015564	0.5835	-0.98038	0.092773	0.26077	0.12009	0.215	-0.043793	0.045624	-0.010529	0.015411	-0.005035	-0.35812	0.12222	-0.000153	-0.009308
56.601	-0.001373	0.86655	-0.030975	-0.013885	-0.002747	0.033417	0.18677	0.020294	0.025177	0.34912	0.046082	0.071869	0.094147	-0.007324	0.80399	0.031281	-0.013123	0.74005	-0.97336	0.080261	0.24963	0.067139	0.26382	-0.056458	-0.014038	-0.009155	-0.037231	-0.002136	-0.17487	0.075836	-0.000916	-0.02121
56.602	-0.001831	0.93994	-0.022125	0.010529	0.005493	0.042114	0.083313	0.019531	0.021362	-0.054626	0.1059	0.072174	0.13428	0.039063	-0.62805	0.034332	0.007629	0.86746	-1.017	0.097046	0.24841	-0.054321	0.25833	-0.050049	-0.072327	0.010529	0.09201	-0.00351	-0.66879	0.14786	-0.002289	-0.010681
56.603	-0.00412	0.98267	-0.011902	0.007477	0.007935	0.038605	-0.007019	0.019836	0.03891	-0.094299	0.053558	0.059662	0.10941	0.061035	-0.81314	0.014038	0.029602	1.0069	-0.74524	0.080109	0.2066	0.08606	0.22537	0.038757	-0.0914	-0.031281	0.031738	-0.000916	0.25681	0.27298	-0.00351	-0.014954
